<?xml version="1.0" standalone="no"?>
<!DOCTYPE svg PUBLIC "-//W3C//DTD SVG 20010904//EN"
 "http://www.w3.org/TR/2001/REC-SVG-20010904/DTD/svg10.dtd">
<svg version="1.0" xmlns="http://www.w3.org/2000/svg"
 width="1004.000000pt" height="1280.000000pt" viewBox="0 0 1004.000000 1280.000000"
 preserveAspectRatio="xMidYMid meet">
<metadata>
Created by potrace 1.15, written by Peter Selinger 2001-2017
</metadata>
<g transform="translate(0.000000,1280.000000) scale(0.100000,-0.100000)"
fill="#000000" stroke="none">
<path d="M6820 12213 l-295 -137 -332 -47 -332 -48 -262 109 c-198 83 -265
107 -275 99 -9 -8 -14 -47 -16 -132 l-3 -122 -328 -188 -328 -187 -118 20
c-65 11 -128 20 -140 20 -22 0 -66 -33 -505 -377 l-189 -148 -71 -212 -71
-211 -304 -421 -304 -421 -114 0 c-136 0 -106 22 -331 -245 -88 -104 -244
-289 -346 -409 -103 -121 -185 -224 -183 -230 6 -20 48 -17 342 23 l290 40
127 -42 c90 -29 131 -38 138 -31 6 6 21 98 33 204 l22 192 265 144 264 144
402 0 401 0 25 -125 25 -126 -23 -231 c-20 -192 -22 -234 -11 -247 41 -49 357
-447 359 -453 2 -4 -61 -103 -138 -220 l-142 -213 -22 -132 c-12 -76 -18 -138
-13 -146 4 -7 55 -70 113 -140 l105 -126 172 -48 c95 -26 173 -50 172 -53 0
-3 -39 -35 -87 -73 -176 -137 -135 -58 -371 -713 l-209 -582 -153 -218 c-84
-121 -162 -230 -173 -243 -36 -40 -655 -522 -689 -535 -17 -7 -261 -93 -542
-190 l-510 -177 -255 -280 c-140 -154 -264 -281 -275 -284 -119 -28 -280 -45
-428 -45 l-165 0 -485 -277 -486 -276 -3 -81 c-2 -47 1 -86 7 -92 5 -6 133
-62 283 -124 149 -62 272 -114 272 -117 0 -2 -90 -144 -200 -315 -110 -171
-200 -317 -200 -324 0 -17 -43 -7 490 -108 332 -63 448 -82 458 -74 7 6 65 74
129 150 63 76 116 138 118 136 1 -2 -9 -96 -23 -209 l-26 -207 -310 -62 c-368
-73 -348 -67 -344 -89 4 -22 388 -371 408 -371 8 0 64 49 125 109 l110 109
340 -23 c187 -13 344 -20 348 -16 4 5 38 109 75 232 l67 224 569 143 c313 78
571 140 574 137 3 -3 15 -96 28 -206 12 -111 26 -205 31 -209 4 -4 241 -49
526 -100 284 -52 514 -97 510 -101 -5 -4 -162 -89 -350 -189 -241 -127 -343
-187 -343 -198 0 -23 226 -361 246 -369 11 -4 50 28 123 101 l107 107 254 -21
c140 -11 278 -20 305 -20 l50 0 93 186 c57 114 97 184 105 181 7 -2 103 -34
214 -71 111 -37 206 -73 211 -79 6 -7 91 -165 191 -352 109 -204 192 -349 209
-363 15 -12 163 -129 328 -259 l302 -236 293 -113 c162 -63 300 -114 307 -114
11 0 342 100 569 171 21 7 105 88 275 267 133 141 325 342 425 447 l181 190
339 89 c186 49 347 94 359 100 11 6 161 121 332 256 l312 245 0 298 0 297 70
255 c38 140 67 261 64 268 -8 17 -848 721 -866 725 -8 2 -65 -27 -127 -64
-107 -64 -113 -66 -125 -48 -8 10 -151 203 -320 429 l-306 409 0 461 0 462
141 164 140 164 109 240 c60 132 110 247 110 255 0 9 -179 127 -438 290 l-437
276 -3 101 -3 100 343 183 c189 100 349 187 356 192 12 11 17 123 6 152 -5 14
-32 16 -197 16 l-192 0 148 148 147 147 0 115 0 115 70 186 70 187 0 118 -1
119 -279 209 -280 208 0 192 0 192 213 307 c162 234 217 307 233 307 11 0 63
-9 115 -20 52 -11 215 -32 363 -45 148 -14 270 -26 271 -28 1 -1 11 -54 21
-117 17 -105 21 -115 41 -115 12 0 67 39 135 97 177 151 158 120 158 263 0 90
-4 128 -13 137 -7 6 -103 62 -212 122 l-199 111 -187 585 -187 585 -292 203
c-161 111 -296 202 -301 202 -5 0 -70 -72 -146 -160 -119 -139 -139 -158 -152
-147 -17 15 -563 495 -698 614 -46 40 -86 73 -90 73 -5 0 -141 -62 -303 -137z"/>
</g>
</svg>
